<?xml version="1.0" standalone="no"?>
<!DOCTYPE svg PUBLIC "-//W3C//DTD SVG 20010904//EN"
 "http://www.w3.org/TR/2001/REC-SVG-20010904/DTD/svg10.dtd">
<svg version="1.0" xmlns="http://www.w3.org/2000/svg"
 width="1024.000000pt" height="1024.000000pt" viewBox="0 0 1024.000000 1024.000000"
 preserveAspectRatio="xMidYMid meet">
<metadata>
Created by potrace 1.14, written by Peter Selinger 2001-2017
</metadata>
<g transform="translate(0.000000,1024.000000) scale(0.100000,-0.100000)"
fill="#000000" stroke="none">
<path d="M4100 8670 c-349 -7 -437 -12 -707 -36 -757 -66 -1198 -269 -1469
-674 -197 -296 -289 -649 -334 -1286 -10 -148 -29 -874 -30 -1146 l0 -138 875
0 874 0 -64 94 c-77 114 -133 228 -173 356 -48 149 -56 204 -55 355 1 177 28
290 108 450 166 336 485 552 855 581 237 18 551 -78 788 -240 l82 -56 0 875 0
875 -207 -2 c-115 -1 -359 -4 -543 -8z"/>
<path d="M5390 7805 l0 -874 94 64 c114 77 228 133 356 173 149 48 204 56 355
55 116 0 157 -5 237 -26 186 -49 353 -144 486 -276 142 -141 249 -333 288
-521 22 -101 24 -304 5 -395 -39 -185 -123 -384 -225 -533 l-56 -82 876 0 876
0 -7 423 c-17 1093 -65 1502 -224 1891 -157 383 -462 662 -871 796 -233 76
-506 121 -906 150 -148 10 -874 29 -1146 30 l-138 0 0 -875z"/>
<path d="M3981 6690 c-273 -41 -469 -300 -431 -569 39 -275 238 -535 503 -656
140 -64 172 -68 500 -72 l299 -4 -4 298 c-4 271 -7 304 -26 368 -51 166 -165
347 -274 436 -184 151 -395 225 -567 199z"/>
<path d="M6109 6689 c-66 -9 -204 -58 -268 -95 -168 -97 -298 -237 -376 -407
-64 -140 -68 -172 -72 -500 l-4 -299 298 4 c337 5 356 8 528 91 199 96 353
265 434 476 63 165 60 307 -10 450 -75 153 -212 255 -376 280 -79 12 -74 12
-154 0z"/>
<path d="M1564 4423 c13 -802 39 -1164 107 -1498 148 -718 541 -1109 1258
-1255 344 -69 678 -93 1494 -106 l427 -6 0 1403 -1 1404 -21 -40 c-94 -184
-273 -397 -445 -532 -290 -227 -638 -352 -993 -356 -87 -2 -113 2 -150 19 -65
30 -105 68 -134 126 -53 106 -26 233 69 316 56 49 86 58 215 67 316 22 566
135 780 354 137 140 231 299 284 479 l15 52 -1456 0 -1455 0 6 -427z"/>
<path d="M5780 4834 c0 -32 53 -172 97 -254 152 -284 415 -495 714 -575 52
-13 159 -31 239 -38 167 -16 205 -30 269 -103 48 -55 65 -107 59 -184 -7 -96
-66 -182 -153 -225 -33 -17 -59 -20 -151 -18 -571 8 -1113 327 -1414 834 l-50
84 0 -1397 0 -1398 113 0 c263 1 1024 20 1157 30 735 53 1136 175 1434 439
245 217 394 498 476 900 69 344 93 678 106 1494 l6 427 -1451 0 c-1317 0
-1451 -1 -1451 -16z"/>
</g>
</svg>
